<svg width="62" height="62" xmlns="http://www.w3.org/2000/svg"><path d="M13.296 31c0 9.82 7.96 17.778 17.777 17.778 9.819 0 17.778-7.958 17.778-17.778 0-9.82-7.957-17.778-17.778-17.778-9.818 0-17.777 7.958-17.777 17.778zM31.073.778l-4.999 10h10.001l-5.002-10zm21.362 8.787l-10.607 3.534 7.068 7.07 3.54-10.604zM20.32 13.099L9.714 9.565l3.534 10.607L20.32 13.1zm-9.54 12.826L.777 30.927l10 4.999V25.925zm40.443 10.15l10-5-10-4.998v9.998zM31.073 61.222l5-10H26.072l5.001 10zm10.755-12.321l10.607 3.534L48.9 41.828 41.828 48.9zM9.714 52.435l10.607-3.534-7.07-7.07-3.537 10.604z" fill-rule="nonzero"/></svg>
