<svg width="62" height="62" xmlns="http://www.w3.org/2000/svg"><g fill-rule="evenodd"><path d="M34.915 33.432S35.702 22.815 26 21.604c-8.316-.852-10.846 6.898-10.846 6.898s-2.503-2.415-5.9-.443c-3.041 1.883-2.502 5.328-2.502 5.328S0 34.704 0 41.608c.186 7.012 7.289 6.838 7.289 6.838l26.568.07s6.359.075 7.517-6.496c.448-7.171-6.46-8.588-6.46-8.588z"/><path d="M53.386 34.023c0-6.921-5.558-12.529-12.418-12.529-1.16 0-3.628.381-6.062 1.652 0 .004-1.521 1.048-1.521 1.048S35.794 26.4 36 32.247c0 .104 6.381 1.756 6.381 8.438 0 4.593-2.417 5.856-2.417 5.856l1.003.01s12.418-2.61 12.418-12.528zM40.837 12.584l-3.492 7.047h6.986zM55.645 18.524l-7.41 2.49 4.94 4.984 2.47-7.474zM54.176 37.45l6.986-3.522-6.986-3.523v7.046zM48.236 46.28l7.41 2.491-2.47-7.475z"/></g></svg>
