<svg width="62" height="62" xmlns="http://www.w3.org/2000/svg"><g fill-rule="evenodd"><path d="M37.604 32.78s.825-11.13-9.346-12.4c-8.718-.892-11.37 7.233-11.37 7.233s-2.625-2.532-6.187-.465c-3.188 1.974-2.623 5.586-2.623 5.586S1 34.114 1 41.354c.195 7.35 7.641 7.167 7.641 7.167l27.854.075s6.667.077 7.88-6.81c.471-7.52-6.77-9.005-6.77-9.005z"/><path d="M54.826 25.873s.825-11.13-9.344-12.401c-8.718-.893-11.477 7.339-11.477 7.339s5.078 2.955 5.294 10.944c3.229.972 6.67 3.644 6.778 9.906l7.64.027s6.667.078 7.881-6.81c.47-7.523-6.772-9.005-6.772-9.005z"/></g></svg>
