<svg width="62" height="62" xmlns="http://www.w3.org/2000/svg"><path d="M47.841 21.642S48.773 9.1 37.281 7.668c-9.852-1.006-12.85 8.149-12.85 8.149s-2.964-2.853-6.99-.524c-3.603 2.225-2.965 6.295-2.965 6.295s-8 1.557-8 9.712c.18 8.147 8.69 8.228 8.69 8.228h31.299s7.917.008 9.033-7.74c.527-8.474-7.657-10.146-7.657-10.146zM18.847 44.521c-.348-.69-.66-1.618-.932-2.782-.268 1.164-.578 2.09-.926 2.782-.732 1.453-1.902 2.584-1.902 2.584-.932 1.038-1.397 2.077-1.397 3.116 0 1.148.416 2.131 1.247 2.955.831.821 1.824 1.232 2.976 1.232 1.16 0 2.153-.411 2.984-1.232.833-.824 1.247-1.807 1.247-2.955 0-1.037-.465-2.076-1.395-3.116 0 0-1.168-1.13-1.902-2.584zm13.624 0c-.348-.69-.66-1.618-.932-2.782-.27 1.164-.578 2.09-.926 2.782-.732 1.453-1.904 2.584-1.904 2.584-.93 1.038-1.395 2.077-1.395 3.116 0 1.148.414 2.131 1.247 2.955.83.821 1.822 1.232 2.976 1.232 1.16 0 2.153-.411 2.984-1.232.833-.824 1.247-1.807 1.247-2.955 0-1.037-.465-2.076-1.397-3.116 0 0-1.168-1.13-1.9-2.584zm13.624 0c-.348-.69-.66-1.618-.932-2.782-.27 1.164-.578 2.09-.927 2.782-.733 1.453-1.903 2.584-1.903 2.584-.93 1.038-1.395 2.077-1.395 3.116 0 1.148.414 2.131 1.247 2.955.83.821 1.822 1.232 2.976 1.232 1.16 0 2.153-.411 2.984-1.232.833-.824 1.247-1.807 1.247-2.955 0-1.037-.465-2.076-1.395-3.116 0 0-1.17-1.13-1.902-2.584z" fill-rule="nonzero"/></svg>
