<svg width="62" height="62" xmlns="http://www.w3.org/2000/svg"><g fill-rule="evenodd"><path d="M34.915 26.432S35.702 15.815 26 14.604c-8.316-.852-10.846 6.898-10.846 6.898s-2.503-2.415-5.9-.443c-3.041 1.883-2.502 5.328-2.502 5.328S0 27.704 0 34.608c.186 7.012 7.289 6.838 7.289 6.838l26.568.07s6.359.075 7.517-6.496c.448-7.171-6.46-8.588-6.46-8.588z"/><path d="M53.386 27.023c0-6.921-5.558-12.529-12.418-12.529-1.16 0-3.628.381-6.062 1.652 0 .004-1.521 1.048-1.521 1.048S35.794 19.4 36 25.247c0 .104 6.381 1.756 6.381 8.438 0 4.593-2.417 5.856-2.417 5.856l1.003.01s12.418-2.61 12.418-12.528zM40.837 5.584l-3.492 7.047h6.986zM55.645 11.524l-7.41 2.49 4.94 4.984 2.47-7.474zM54.176 30.45l6.986-3.522-6.986-3.523v7.046zM48.236 39.28l7.41 2.491-2.47-7.475zM18.847 47.52c-.348-.688-.66-1.617-.932-2.78-.268 1.163-.578 2.09-.926 2.78-.732 1.454-1.902 2.585-1.902 2.585-.932 1.038-1.397 2.077-1.397 3.116 0 1.148.416 2.131 1.247 2.955.831.821 1.824 1.232 2.976 1.232 1.16 0 2.153-.411 2.984-1.232.833-.824 1.247-1.807 1.247-2.955 0-1.037-.465-2.076-1.395-3.116 0 0-1.168-1.13-1.902-2.584zM31.539 44.74c-.27 1.163-.578 2.09-.926 2.78-.732 1.454-1.904 2.585-1.904 2.585-.93 1.038-1.395 2.077-1.395 3.116 0 1.148.414 2.131 1.247 2.955.83.821 1.822 1.232 2.976 1.232 1.16 0 2.153-.411 2.984-1.232.833-.824 1.247-1.807 1.247-2.955 0-1.037-.465-2.076-1.397-3.116 0 0-1.168-1.13-1.9-2.584-.348-.69-.66-1.618-.932-2.782zM45.163 44.74c-.27 1.163-.578 2.09-.927 2.78-.733 1.454-1.903 2.585-1.903 2.585-.93 1.038-1.395 2.077-1.395 3.116 0 1.148.414 2.131 1.247 2.955.83.821 1.822 1.232 2.976 1.232 1.16 0 2.153-.411 2.984-1.232.833-.824 1.247-1.807 1.247-2.955 0-1.037-.465-2.076-1.395-3.116 0 0-1.17-1.13-1.902-2.584-.348-.69-.66-1.618-.932-2.782z"/></g></svg>
