<svg width="62" height="62" xmlns="http://www.w3.org/2000/svg"><path d="M47.483 22.875s.912-12.384-10.336-13.799c-9.642-.993-12.575 8.047-12.575 8.047s-2.9-2.818-6.84-.515c-3.526 2.196-2.901 6.215-2.901 6.215S7 24.358 7 32.41c.175 8.044 8.503 8.125 8.503 8.125h30.633s7.749.008 8.84-7.643c.516-8.367-7.493-10.018-7.493-10.018zm-28.239 26.6c2.46-3.829 1.884-4.367-1.724-1.62-.945-4.461-1.73-4.434-2.354.084-3.794-2.481-4.33-1.901-1.608 1.739-4.42.953-4.394 1.745.084 2.377-2.46 3.826-1.882 4.366 1.726 1.62.943 4.46 1.727 4.434 2.354-.084 3.794 2.48 4.33 1.9 1.606-1.742 4.423-.95 4.394-1.743-.084-2.375zm13.334 0c2.459-3.829 1.883-4.367-1.724-1.62-.945-4.461-1.73-4.434-2.355.084-3.794-2.481-4.33-1.901-1.607 1.739-4.421.953-4.395 1.745.084 2.377-2.46 3.826-1.882 4.366 1.725 1.62.943 4.46 1.728 4.434 2.355-.084 3.794 2.48 4.33 1.9 1.605-1.742 4.423-.95 4.395-1.743-.083-2.375zm13.333 0c2.46-3.829 1.884-4.367-1.724-1.62-.944-4.461-1.73-4.434-2.354.084-3.794-2.481-4.33-1.901-1.608 1.739-4.42.953-4.394 1.745.084 2.377-2.459 3.826-1.884 4.366 1.724 1.62.945 4.46 1.73 4.434 2.356-.084 3.793 2.48 4.328 1.9 1.606-1.742 4.423-.95 4.394-1.743-.084-2.375z" fill-rule="nonzero"/></svg>
